<?xml version="1.0" encoding="utf-8"?>
<!-- Generator: Adobe Illustrator 16.0.4, SVG Export Plug-In . SVG Version: 6.00 Build 0)  -->
<!DOCTYPE svg PUBLIC "-//W3C//DTD SVG 1.1//EN" "http://www.w3.org/Graphics/SVG/1.1/DTD/svg11.dtd">
<svg version="1.1" xmlns="http://www.w3.org/2000/svg" xmlns:xlink="http://www.w3.org/1999/xlink" x="0px" y="0px"
	 width="318.143px" height="177.937px" viewBox="0 0 318.143 177.937" enable-background="new 0 0 318.143 177.937"
	 xml:space="preserve">
<g id="Calque_1">
	<path fill="#FFFFFF" d="M64.569,54.765c0.19,10.418,0.19,57.988,0,68.406c-0.026,1.465-0.052,2.989-0.081,4.615
		c-0.903-0.607-1.826-1.227-2.762-1.856c-0.859-0.586-1.732-1.181-2.611-1.78c-0.944-0.694-1.904-1.4-2.859-2.104
		c-1.882-1.402-3.689-2.784-5.264-4.002c-3.148-2.438-5.362-4.223-5.362-4.223s2.554,1.252,6.092,3.076
		c1.77,0.912,3.786,1.968,5.853,3.081c1.039,0.568,2.085,1.141,3.113,1.703l0.086,0.047l0.022,0.007l0.044,0.012l0.08,0.021
		c0.049,0.012,0.092,0.021,0.128,0.026c0.073,0.011,0.123,0.011,0.157,0.004c-0.035-0.166-0.062-0.266-0.08-0.335
		c-0.189-6.245-0.189-58.747,0-64.992c0.018-0.07,0.045-0.169,0.08-0.336c-0.034-0.006-0.084-0.006-0.157,0.005
		c-0.036,0.006-0.079,0.015-0.128,0.026l-0.08,0.021l-0.044,0.012l-0.022,0.008l-0.086,0.046c-1.028,0.562-2.074,1.134-3.113,1.703
		c-2.066,1.113-4.083,2.169-5.853,3.081c-3.538,1.824-6.092,3.076-6.092,3.076s2.214-1.785,5.362-4.223
		c1.574-1.219,3.382-2.6,5.264-4.003c0.955-0.702,1.915-1.408,2.859-2.103c0.879-0.6,1.752-1.195,2.611-1.781
		c0.936-0.629,1.858-1.248,2.762-1.855C64.518,51.776,64.543,53.3,64.569,54.765L64.569,54.765z"/>
	<path fill="#FFFFFF" d="M86.38,58.63c0.189,8.168,0.189,52.507,0,60.675c-0.028,1.396-0.057,2.856-0.086,4.409
		c-0.906-0.352-1.83-0.711-2.769-1.076c-0.448-0.177-0.899-0.354-1.354-0.534l-0.333-0.133l-0.261-0.106l-0.365-0.158
		c-0.96-0.426-1.938-0.86-2.91-1.292c-1.919-0.868-3.765-1.732-5.374-2.499c-3.218-1.534-5.488-2.678-5.488-2.678
		s2.481,0.555,5.942,1.408c1.73,0.427,3.706,0.929,5.74,1.474c1.025,0.283,2.057,0.566,3.07,0.846l0.383,0.109l0.092,0.026h0.021
		l0.039,0.001c0.051,0,0.095-0.001,0.132-0.003c0.076-0.006,0.127-0.017,0.162-0.029c-0.037-0.153-0.066-0.241-0.085-0.302
		c-0.19-6.855-0.19-52.746,0-59.601c0.019-0.061,0.048-0.148,0.085-0.302c-0.035-0.013-0.086-0.024-0.162-0.028
		c-0.037-0.004-0.081-0.004-0.132-0.004l-0.039,0.001l-0.021,0.001l-0.092,0.025l-0.383,0.109c-1.014,0.279-2.045,0.562-3.07,0.846
		c-2.034,0.545-4.01,1.047-5.74,1.473c-3.461,0.854-5.942,1.409-5.942,1.409s2.271-1.144,5.488-2.678
		c1.609-0.767,3.455-1.631,5.374-2.499c0.973-0.432,1.95-0.865,2.91-1.292l0.365-0.158l0.261-0.106l0.333-0.133
		c0.455-0.18,0.906-0.357,1.354-0.535c0.938-0.365,1.862-0.724,2.769-1.076C86.323,55.775,86.352,57.234,86.38,58.63L86.38,58.63z"
		/>
	<path fill="#FFFFFF" d="M108.19,61.041c0.189,9.57,0.189,46.285,0,55.854c-0.011,0.548-0.021,1.107-0.031,1.722
		c-0.877-0.165-1.777-0.335-2.7-0.509c-0.441-0.086-0.888-0.174-1.34-0.262c-0.249-0.057-0.499-0.113-0.753-0.171
		c-0.963-0.225-1.938-0.464-2.904-0.708c-1.932-0.49-3.821-1.003-5.482-1.469c-3.322-0.932-5.729-1.677-5.729-1.677
		s2.52,0.058,5.965,0.229c1.723,0.086,3.678,0.199,5.664,0.349c0.994,0.074,1.996,0.158,2.98,0.251
		c0.236,0.022,0.471,0.044,0.703,0.065c0.039-0.009,0.071-0.018,0.1-0.026c0.055-0.018,0.09-0.036,0.113-0.051
		c-0.012-0.037-0.021-0.072-0.03-0.106c-0.19-3.793-0.19-47.333,0-51.127c0.009-0.033,0.019-0.068,0.03-0.105
		c-0.023-0.016-0.059-0.033-0.113-0.051c-0.028-0.01-0.061-0.018-0.1-0.027c-0.232,0.021-0.467,0.045-0.703,0.066
		c-0.984,0.094-1.986,0.176-2.98,0.251c-1.986,0.149-3.941,0.263-5.664,0.349c-3.445,0.171-5.965,0.229-5.965,0.229
		s2.406-0.745,5.729-1.677c1.661-0.466,3.551-0.979,5.482-1.468c0.966-0.245,1.941-0.484,2.904-0.709
		c0.254-0.058,0.504-0.115,0.753-0.171c0.452-0.089,0.898-0.175,1.34-0.262c0.923-0.174,1.823-0.345,2.7-0.509
		C108.17,59.935,108.18,60.494,108.19,61.041L108.19,61.041z"/>
	<g>
		<path fill="#FFFFFF" d="M164.817,105.841h-11.066v-3.457h3.891V74.719h-3.891v-3.458h14.999c2.68,0,4.704,0.771,6.073,2.312
			c1.368,1.542,2.053,3.812,2.053,6.808v2.767c0,2.507-0.469,4.51-1.404,6.008c-0.937,1.499-2.312,2.464-4.128,2.896l3.458,10.332
			h4.063v3.457h-7.003l-4.495-13.486h-5.792v10.029h3.242V105.841z M161.575,88.983h6.787c1.729,0,2.924-0.432,3.587-1.296
			c0.663-0.865,0.994-2.377,0.994-4.539v-2.81c0-2.103-0.332-3.566-0.994-4.387c-0.663-0.821-1.858-1.232-3.587-1.232h-6.787V88.983
			z"/>
		<path fill="#FFFFFF" d="M182.711,105.841v-3.457h6.483V74.719h-6.483v-3.458h16.9v3.458h-6.483v27.665h6.483v3.457H182.711z"/>
		<path fill="#FFFFFF" d="M203.892,105.841v-3.457h3.89V74.719h-3.89v-3.458h11.584v3.458h-3.761v10.504h12.276V74.719h-3.761
			v-3.458h11.584v3.458h-3.89v27.665h3.89v3.457H220.23v-3.457h3.761V88.768h-12.276v13.616h3.761v3.457H203.892z"/>
		<path fill="#FFFFFF" d="M247.505,102.384v3.457h-11.108v-3.457h3.89V74.719h-3.89v-3.458h9.207l11.368,30.56V74.719h-3.761v-3.458
			h11.108v3.458h-3.89v31.122h-5.62l-11.065-29.825v26.368H247.505z"/>
	</g>
</g>
<g id="Calque_2">
	<path fill="#FFFFFF" d="M142.204,106.273c-3.486,0-6.102-0.957-7.845-2.875c-1.744-1.916-2.615-4.775-2.615-8.58V82.457
		c0-3.861,0.879-6.766,2.637-8.711c1.758-1.944,4.38-2.917,7.867-2.917c3.256,0,7.5,0.433,7.5,0.433v3.609
		c0,0-5.411-0.584-7.544-0.584c-2.333,0-4.005,0.635-5.014,1.902s-1.513,3.357-1.513,6.268v12.361c0,2.854,0.504,4.9,1.513,6.139
		c1.009,1.239,2.681,1.858,5.014,1.858c2.133,0,7.544-0.61,7.544-0.61v3.637C149.748,105.842,145.461,106.273,142.204,106.273z"/>
</g>
</svg>
